<svg width="256" height="256" viewBox="0 0 256 256" fill="none" xmlns="http://www.w3.org/2000/svg">
  <rect width="256" height="256" rx="72" fill="#10251B"/>
  <path d="M144 42C174.928 52.686 198 82.719 198 118C198 164.392 160.392 202 114 202C81.858 202 54.003 183.806 40 157.168C47.428 162.913 56.746 166.333 66.857 166.333C91.221 166.333 111 146.554 111 122.19C111 88.364 119.194 60.385 144 42Z" fill="#D7F74A"/>
  <path d="M95 56C121.51 56 143 77.49 143 104C143 130.51 121.51 152 95 152C68.49 152 47 130.51 47 104C47 77.49 68.49 56 95 56Z" fill="#F5C84B"/>
  <path d="M138 43C150.104 30.503 168.193 26 186 26C181.359 43.667 168.971 58.156 151.312 64.122C145.228 57.895 140.789 50.922 138 43Z" fill="#2F6D4F"/>
  <path d="M79 94L100 122L122 94" stroke="#10251B" stroke-width="16" stroke-linecap="round" stroke-linejoin="round"/>
</svg>
